<?xml version="1.0" encoding="utf-8"?>
<!-- Generator: Adobe Illustrator 26.0.1, SVG Export Plug-In . SVG Version: 6.00 Build 0)  -->
<svg version="1.1" id="Layer_1" xmlns="http://www.w3.org/2000/svg" xmlns:xlink="http://www.w3.org/1999/xlink" x="0px" y="0px"
	 viewBox="0 0 595.3 841.9" style="enable-background:new 0 0 595.3 841.9;" xml:space="preserve">
<path d="M416.6,321.1c-8.2-17.3-22.8-25.9-41.7-26.2c-4.4,0.1-8.6,0.4-12.9,1.1c-12.8,2.6-24.3,10.1-32.6,20
	c-12.7,14.8-18.9,34.4-18.2,53.9c0,0,0,6.4,0,6.4c0,8.4,0,54.5,0.1,63.9c0,8.3,0.3,17.1-1.7,25.2c-1.8,7.6-5.1,16-11.8,20.4
	c-6.1-4.1-13.4-6.5-20.7-5.6c-1.9,0.2-3.8,0.6-5.6,1.6c-5.9,3.4-4.5,9.5,1.7,11.2c7.7,2,16.1,0.9,23.1-2.8c0.4-0.2,0.8-0.4,1.1-0.5
	c0.4-0.2,1.1,0.7,1.7,1.3c3.2,3.2,5.3,7.3,6.7,11.6c3,8.6,5.4,17.6,8.1,26.2c3,9.1,7.9,16.3,14.2,21.5c0,0,0.1,0.1,0.1,0.1
	c0.7,0.6,1.5,1.2,2.3,1.7c0.1,0.1,0.3,0.2,0.4,0.3c0.7,0.5,1.3,0.9,2,1.3c0.1,0.1,0.3,0.2,0.4,0.3c7.7,4.5,16.8,6.5,26.7,5.7
	c0.3,0,0.6-0.1,1-0.1c0.2,0,0.4,0,0.5-0.1c1.4-0.1,2.8-0.3,4.2-0.6c0,0,0,0,0,0c0,0,0,0,0,0c0,0,0,0,0,0c0.9-0.2,1.8-0.4,2.7-0.6
	c-0.9,0.2-1.8,0.4-2.7,0.6c9.6-1.8,18.2-7,24.6-14.1c0.3-0.3,0.6-0.7,0.9-1c0,0,0.1-0.1,0.1-0.1c0.3-0.4,0.7-0.8,1-1.3
	c0,0,0,0,0-0.1c0.3-0.3,0.5-0.7,0.8-1c0.1-0.2,0.3-0.4,0.4-0.6c0.1-0.1,0.2-0.2,0.3-0.4c3.7-5.3,6.3-11.4,7.4-17.9
	c2.8-13.6,0-30.5-10-40.7c-6.5-6.6-17.6-7.8-25.8-3.8c-14.8,6.9-15.5,25.8-8.9,38.8c1,1.7,1.5,4.7,4,4.6l1.3,0l-0.3-1.2
	c-0.1-0.3-0.1-0.6-0.2-1.1c-0.9-2.3-2.1-4.6-3-6.9c-4.4-9.6-3.6-22.9,5.3-29.7c6.4-4.8,15.9-5.3,22.8-1.2c4.5,2.9,7.6,7.9,9.8,12.7
	c4.3,10.2,4.5,21.9,1.5,32.5c-2.9,10.7-10.2,19.9-19.7,25.5c-8.7,5.1-22.1,8.1-31.5,3.5c-10.3-4.9-15.9-15.1-20.1-25.3
	c-2.2-5.2-4.2-10.4-6.4-15.6c-4.2-10.2-11.2-19.1-19.5-26.4c12.8-10.5,20.3-25.1,21.9-41.6c0.6-7.1,0.4-17.2,0.5-24.4
	c0.1-22.5-0.5-50.5,0.5-72.9c1.6-23.8,17.7-47.6,42.6-50.6c5.9-0.8,12-0.4,17.8,0.9c5.7,1.4,10.9,4.7,14.8,9.1
	c7.8,9,11.3,21.3,11.1,33.1c-0.1,7.9-0.9,16.1-4.9,23.1c-1.9,3.4-4.6,6.4-8.1,8.1c-6.6,3.3-16.2,2.1-21.9-2.5
	c-6.2-5-7.4-13.9-5.6-21.3c0.8-3.3,2.4-6.4,4.6-9c0.5-0.6,0.6-1.2,0.8-1.5l0.7-1.2c-1.1-0.1-2.7-0.8-3.6,0.4
	c-2.6,2.9-4.6,6.4-5.5,10.3c-4.7,17.1,7.1,32,25,29.5c2.1-0.2,4.5-0.3,6.5-1.2c8.3-2.9,15.3-9.2,19.2-17
	C422.4,347.3,421.9,332.9,416.6,321.1z M381.3,552.3c-0.2,0.1-0.3,0.2-0.5,0.3C380.9,552.5,381.1,552.4,381.3,552.3z M277.3,491
	c-1.4-0.2-2.8-0.5-4.1-1c-3.5-1.2-3.8-4.1-0.4-5.7c3.9-1.8,8.5-1.6,12.6-0.7c3.3,0.8,6.4,2.3,9.1,4.3c-0.9,0.5-1.8,1-2.7,1.3
	c-2.2,1.2-4.6,2.6-7.1,2.7C282.2,492.1,279.7,491.5,277.3,491z M349.8,559.3c0.5,0.1,1.1,0.1,1.6,0.2c1.2,0.1,2.4,0.2,3.6,0.2
	C353.2,559.6,351.5,559.5,349.8,559.3z M348.3,559c0.5,0.1,0.9,0.1,1.4,0.2C349.2,559.2,348.7,559.1,348.3,559z M371,557.3
	c-0.8,0.3-1.5,0.5-2.3,0.7C369.5,557.8,370.3,557.6,371,557.3z M378.7,553.9c-0.3,0.2-0.5,0.3-0.8,0.4
	C378.1,554.2,378.4,554.1,378.7,553.9z M376,555.3c-0.4,0.2-0.7,0.3-1.1,0.5C375.3,555.7,375.7,555.5,376,555.3z M373.8,556.3
	c-0.6,0.3-1.3,0.5-1.9,0.7C372.5,556.8,373.2,556.6,373.8,556.3z M259,466.5c10.4-12.6,17.4-30.8,20-45.7c1.5-8.6,0.9-21.4,1.2-30.3
	c0,0,0.3-30.3,0.3-30.3l-0.2,0.6l0.2-0.6l0-0.4c20.4-17.3,25-48.2,16.7-72.7c-2.9-8.1-7.4-16.2-15.1-20.6c1.1-8,3.1-16,6.9-23.1
	c2-3.5,5.4-8.5,9.3-11.3c7.4,5.3,16.7,8,25.8,7.1c5.7,0.8,16.1-6.7,10.6-13.5c-0.7-0.8-1.5-1.5-2.4-2c-8.4-3.9-18.3-2.9-26.7,0.3
	c-2.7,1-5.2,2.3-7.6,3.8c-11.5-5.1-24.7-5.8-36.8-2.5c-36.4,10.5-62.8,49.6-58.6,87.3c0.2,15.9,9.5,31.8,21.9,41.9
	c12.1,10,28.6,16,44.3,12.5c0,6.8-0.1,39.1-0.1,39.1c-0.1,13.4,0.3,26.9-2.8,40c-3.4,12.6-11.2,24.8-22.8,31.1
	c-11.5,6.2-26.5,5.8-37.7-0.8c-11.5-7-16.7-20.7-18.2-33.6c-1.6-17-2.4-44.6,11.9-56.3c4.9-4.2,12-5.6,17.9-3.2
	c9.5,3.9,10.9,16.1,10,25.1c-0.3,2.6-1,5.2-1.9,7.7c-0.4,1-0.3,2-0.6,3l0.9,0.2c0.4,0.1,1.3,0.3,1.7,0.4c0.5-1.4,1.2-2.7,1.5-4.3
	l0.7-3.5c0.5-2.3,1-4.7,1-7.2c0.2-7.2-1.2-15.1-6.3-20.6c-5.3-5.4-13.9-6.4-20.9-3.9c-9.2,3.4-16.1,10.9-21,19.1
	c-9.9,16.5-9.4,37.9-1.6,55.2c6.1,12.5,18.2,23,31.4,27.3c8.4,2.1,17.6,2.5,25.8-0.3c0.1,0,0.1,0,0.2-0.1c0.6-0.2,1.2-0.4,1.9-0.7
	c0.9-0.4,1.7-0.9,2.6-1.3c2.9-1.4,5.6-3.2,8.1-5.3c0.4-0.3,0.8-0.6,1.3-0.9c0.5-0.4,1-0.9,1.5-1.3c0.4-0.3,0.8-0.7,1.1-1
	c0.1-0.1,0.2-0.2,0.3-0.2C256.3,469.8,257.7,468.2,259,466.5z M308.2,226.8c5.8-1.7,12.2-2.8,18.2-1.5c2.8,0.6,5.3,2.2,6.4,4.7
	c-3.1,9.4-17.3,6.7-24.5,4c-3.1-0.9-6.1-2-8.9-3.8l0-0.4l0,0v0c0,0,0,0,0,0c0,0,0,0,0,0C302.2,228.3,305.2,227.5,308.2,226.8z
	 M296,295.5c3.7,17.9,1,37.9-9.7,52.9c-1.7,2.3-3.6,4.5-5.6,6.6c0-9.2,0-42,0-42c0.1-12.9-0.1-31.2,0.4-43.9
	c2.2,1.1,4.2,2.7,5.9,4.6c-0.1-0.1-0.1-0.2-0.2-0.2c0.4,0.4,0.8,0.9,1.2,1.4c0.4,0.6,0.8,1.1,1.2,1.7c-0.4-0.6-0.8-1.1-1.2-1.7
	C292.4,280.8,294.7,288.2,296,295.5z M274.2,361.8L274.2,361.8L274.2,361.8L274.2,361.8z M216.9,273.2c7.1-23.8,27.9-43.5,53-46.2
	c8.6-0.9,17.3,0.2,25.4,3.1c-10.1,9.1-17.4,20.9-21.6,33.7c-10.1-1.5-19.5,3-25.2,11.5c-7.1,11.3-6.3,26-1.7,38.1
	c0.8,2.2,1.9,4.6,2.9,6.7c0.4,1,1.7,1.9,2.8,1.8c0,0,1.2,0,1.2,0c-0.3-1.1-0.4-2.5-0.9-3.6c-0.5-1.3-2-5-2.5-6.4
	c-3.5-8.3-4.8-17.5-2.4-26.2c2.6-11.8,12.6-20,24.7-18.6c-2.2,7.5-3.5,15.3-3.5,23.1c-0.1,15.4-0.2,55.5-0.3,72.2c0,0,0,0,0,0
	c0,0.3,0,0.7,0,1.1c-9.2,2.3-19.3,1.4-27.8-2.9c-13.5-6.5-21.8-20.3-25.3-34.5c-3.7-14.6-3.1-29.8-0.8-44.6
	c-0.4,2.4-0.7,4.9-1.1,7.4c0.3-2.4,0.6-4.9,1.1-7.4C215.5,278.8,216.1,275.9,216.9,273.2z M286.9,273.7c0.3,0.4,0.6,0.8,0.9,1.2
	C287.6,274.5,287.2,274.1,286.9,273.7z"/>
</svg>
